<svg width="80" height="80" viewBox="0 0 80 80" fill="none" xmlns="http://www.w3.org/2000/svg">
<g clip-path="url(#clip0)">
<path d="M10.6671 50.6668H32.0003C33.471 50.6668 34.667 49.4709 34.667 48.0001V42.6669C34.667 41.1963 33.4711 40.0002 32.0003 40.0002H17.3337C16.5977 40.0002 16.0004 40.5975 16.0004 41.3334C16.0004 42.0694 16.5977 42.6667 17.3337 42.6667H32.0003V48H10.6671V42.6667H12.0004C12.7363 42.6667 13.3337 42.0694 13.3337 41.3334V20.0003C13.3337 19.2643 12.7363 18.667 12.0004 18.667C11.2645 18.667 10.6671 19.2643 10.6671 20.0003V40.0002C9.19652 40.0002 8.00043 41.1961 8.00043 42.6669V48.0001C8.00043 49.4707 9.19652 50.6668 10.6671 50.6668Z" fill="#5939FB"/>
<path d="M26.707 54.343L25.3737 59.6762C25.1951 60.3909 25.6297 61.1136 26.3431 61.2936C26.4525 61.3203 26.5605 61.3336 26.6684 61.3336C27.2658 61.3336 27.8084 60.9283 27.9605 60.3229L29.2937 54.9909C29.4723 54.2763 29.0378 53.5524 28.3244 53.3736C27.6109 53.195 26.887 53.6297 26.707 54.343Z" fill="#5939FB"/>
<path d="M10.6671 16.0002H25.3338C26.0697 16.0002 26.6671 15.4028 26.6671 14.6669C26.6671 13.931 26.0697 13.3336 25.3338 13.3336H10.6671V8.0002H32.0003V13.3335H30.6671C29.9311 13.3335 29.3338 13.9308 29.3338 14.6667V35.9999C29.3338 36.7359 29.9311 37.3332 30.6671 37.3332C31.403 37.3332 32.0003 36.7359 32.0003 35.9999V16C33.471 16 34.667 14.8041 34.667 13.3333V8.0002C34.667 6.52959 33.4711 5.3335 32.0003 5.3335H10.6671C9.19652 5.3335 8.00043 6.52943 8.00043 8.0002V13.3335C8.00043 14.8042 9.19652 16.0002 10.6671 16.0002Z" fill="#5939FB"/>
<path d="M36.0004 24.0003H68.0003C68.7362 24.0003 69.3336 23.4029 69.3336 22.667C69.3336 21.9311 68.7362 21.3337 68.0003 21.3337H36.0004C35.2645 21.3337 34.6671 21.9311 34.6671 22.667C34.6671 23.4029 35.2645 24.0003 36.0004 24.0003Z" fill="#5939FB"/>
<path d="M40.3909 53.7241L35.0576 59.0573C34.5362 59.5787 34.5362 60.4213 35.0576 60.9426C35.3176 61.2026 35.659 61.3332 36.0003 61.3332C36.3417 61.3332 36.6829 61.2026 36.9429 60.9426L42.2762 55.6094C42.7976 55.0881 42.7976 54.2453 42.2762 53.7241C41.7549 53.2027 40.9123 53.2027 40.3909 53.7241Z" fill="#5939FB"/>
<path d="M14.3431 53.3736C13.6298 53.5522 13.1951 54.2763 13.3737 54.9909L14.707 60.3229C14.859 60.9283 15.4017 61.3336 15.999 61.3336C16.107 61.3336 16.215 61.3203 16.3243 61.2936C17.0376 61.1136 17.4723 60.3909 17.2937 59.6762L15.9604 54.343C15.7818 53.6297 15.0578 53.195 14.3431 53.3736Z" fill="#5939FB"/>
<path d="M77.3335 18.667H74.6668C73.1962 18.667 72.0001 19.8629 72.0001 21.3337V28.0004C72.0001 28.7363 72.5974 29.3337 73.3334 29.3337C74.0693 29.3337 74.6666 28.7363 74.6666 28.0004V21.3337H77.3334V34.6669H74.6666V33.3337C74.6666 32.5977 74.0693 32.0004 73.3334 32.0004H36.0004C35.2645 32.0004 34.6671 32.5977 34.6671 33.3337C34.6671 34.0696 35.2645 34.6669 36.0004 34.6669H72.0003C72.0003 36.1375 73.1962 37.3336 74.667 37.3336H77.3337C78.8043 37.3336 80.0004 36.1377 80.0004 34.6669V21.3337C80.0002 19.8629 78.8043 18.667 77.3335 18.667Z" fill="#5939FB"/>
<path d="M38.6671 63.9998H4.00047C1.79517 63.9998 0.000488281 65.7944 0.000488281 67.9997V73.333C0.000488281 74.0689 0.59783 74.6663 1.33376 74.6663H41.3336C42.0695 74.6663 42.6669 74.0689 42.6669 73.333V67.9997C42.667 65.7944 40.8724 63.9998 38.6671 63.9998ZM40.0003 71.9997H2.6672V67.9997C2.6672 67.2651 3.26579 66.6665 4.00047 66.6665H38.6671C39.4017 66.6665 40.0003 67.2651 40.0003 67.9997V71.9997Z" fill="#5939FB"/>
<path d="M5.72444 60.9427C5.98444 61.2027 6.32584 61.3334 6.66709 61.3334C7.0085 61.3334 7.34975 61.2027 7.60975 60.9427C8.13115 60.4213 8.13115 59.5774 7.60975 59.056L2.27649 53.7241C1.75508 53.2027 0.912428 53.2027 0.39118 53.7241C-0.130068 54.2453 -0.130068 55.0881 0.39118 55.6093L5.72444 60.9427Z" fill="#5939FB"/>
</g>
<defs>
<clipPath id="clip0">
<rect width="80" height="80" fill="white"/>
</clipPath>
</defs>
</svg>
