<svg width="80" height="70" viewBox="0 0 80 70" fill="none" xmlns="http://www.w3.org/2000/svg">
<path d="M40.0401 48.3333H40.0254C39.2907 48.3333 38.7001 48.9306 38.7001 49.6665C38.7001 50.4025 39.3027 50.9998 40.0401 50.9998C40.776 50.9998 41.3733 50.4025 41.3733 49.6665C41.3733 48.9306 40.776 48.3333 40.0401 48.3333Z" fill="#5939FB"/>
<path d="M46.5641 30.9959C47.3067 31.0439 47.94 30.5027 47.9961 29.7692L49.3281 12.4572C49.6241 9.28391 53.8895 5.66656 57.3334 5.66656H60C63.5094 5.66656 67.7733 9.26922 68.0041 12.4359L69.3374 29.7692C69.3906 30.4678 69.9747 30.9998 70.6653 30.9998C70.6986 30.9998 70.7347 30.9986 70.7694 30.9958C71.5027 30.9398 72.052 30.2984 71.9961 29.5638L70.6628 12.2358C70.3067 7.34937 64.4027 3 60 3H57.3333C52.48 3 47.1 7.64797 46.6706 12.2306L45.3374 29.5639C45.2814 30.2986 45.8306 30.94 46.5641 30.9959Z" fill="#5939FB"/>
<path d="M58.5974 11.9118C58.416 11.3665 57.9068 10.9998 57.3334 10.9998C56.7587 10.9998 56.2493 11.3665 56.0681 11.9118C55.0667 14.9185 52.116 14.9985 52.0001 14.9998C51.2628 14.9998 50.6668 15.5971 50.6668 16.333V21.6663C50.6668 26.1196 53.7095 32.333 58.6668 32.333C63.6228 32.333 66.6668 26.1198 66.6668 21.6663V16.333C66.6668 15.5971 66.0695 14.9998 65.3335 14.9998C65.276 14.9998 59.6001 14.9157 58.5974 11.9118ZM64.0001 21.6665C64.0001 25.2905 61.6215 29.6665 58.6668 29.6665C55.7121 29.6665 53.3335 25.2905 53.3335 21.6665V17.5038C54.6389 17.2079 56.2509 16.4638 57.4349 14.9491C59.3017 16.8171 62.2817 17.4012 64.0003 17.5838V21.6665H64.0001Z" fill="#5939FB"/>
<path d="M45.3733 51.0001C46.1092 51.0001 46.7065 50.4027 46.7065 49.6668C46.7065 48.9308 46.1092 48.3335 45.3733 48.3335H45.3586C44.6239 48.3335 44.0332 48.9308 44.0332 49.6668C44.0332 50.4027 44.6359 51.0001 45.3733 51.0001Z" fill="#5939FB"/>
<path d="M70.7548 45.6665H70.7495C70.0148 45.6665 69.4189 46.2598 69.4163 46.9945L69.3336 68.3278C69.3309 69.0637 69.9242 69.6637 70.6616 69.6665H70.6669C71.4016 69.6665 71.9975 69.0732 72.0001 68.3385L72.0828 47.0053C72.0855 46.2692 71.4922 45.6692 70.7548 45.6665Z" fill="#5939FB"/>
<path d="M76.7306 36.3344C74.1173 33.7265 70.1906 32.3491 65.3732 32.3491C64.6026 32.3638 64.0039 32.9318 63.9999 33.6785C63.9985 33.9505 63.9053 40.3332 58.6667 40.3332C53.4267 40.3332 53.3346 33.9518 53.3334 33.6799C53.332 32.9452 52.7348 32.3505 52.0001 32.3505C51.2628 32.3505 50.6668 32.9465 50.6668 33.6838C50.6668 36.6652 52.1068 42.0958 57.3335 42.8918V49.6665C57.3335 50.4024 57.9295 50.9997 58.6668 50.9997C59.4028 50.9997 60.0001 50.4024 60.0001 49.6665V42.8904C64.5001 42.2036 66.1948 38.0863 66.576 35.049C70.1134 35.2476 72.9546 36.333 74.8454 38.2222C76.4507 39.8236 77.3334 41.9929 77.3334 44.3329V65.6661C77.3334 66.4021 77.9293 66.9994 78.6667 66.9994C79.4026 66.9994 79.9999 66.4021 79.9999 65.6661V44.333C79.9999 41.2797 78.8387 38.4397 76.7306 36.3344Z" fill="#5939FB"/>
<path d="M9.33341 45.6665C8.59606 45.6665 8.00012 46.2638 8.00012 46.9998V68.3331C8.00012 69.069 8.59606 69.6664 9.33341 69.6664C10.0693 69.6664 10.6667 69.069 10.6667 68.3331V46.9998C10.6668 46.2638 10.0695 45.6665 9.33341 45.6665Z" fill="#5939FB"/>
<path d="M41.3333 40.3335C36.6227 40.3335 33.3333 43.6229 33.3333 48.3335V49.6668C33.3333 56.1468 36.9974 60.3335 42.6666 60.3335C48.336 60.3335 51.9999 56.1468 51.9999 49.6668V48.3335C51.9999 43.6229 48.7093 40.3335 43.9999 40.3335H41.3333ZM49.3333 48.3335V49.6668C49.3333 52.0721 48.6827 57.6668 42.6666 57.6668C36.6492 57.6668 35.9999 52.0721 35.9999 49.6668V48.3335C35.9999 45.0935 38.0932 43.0002 41.3332 43.0002H44C47.2386 43.0002 49.3333 45.0935 49.3333 48.3335Z" fill="#5939FB"/>
<path d="M26.6667 13.6666H28C28.7359 13.6666 29.3332 13.0692 29.3332 12.3333C29.3332 11.5973 28.7359 11 28 11H26.6667C25.9293 11 25.3334 11.5973 25.3334 12.3333C25.3332 13.0692 25.9293 13.6666 26.6667 13.6666Z" fill="#5939FB"/>
<path d="M13.384 16.0041C13.6386 18.5668 14.7533 20.8227 14.8066 20.9294C16.0146 23.3468 17.8425 27.0001 23.9999 27.0001C30.1572 27.0001 31.984 23.3468 33.1919 20.9294C33.2452 20.8227 34.3599 18.5668 34.616 16.0041C35.44 15.5508 36 14.6721 36 13.6668V11.0001C36 10.0147 35.4627 9.15334 34.6668 8.69209V8.3335C34.6668 3.92146 31.0774 0.333496 26.6668 0.333496H21.3335C16.9215 0.333496 13.3335 3.92146 13.3335 8.3335V8.69209C12.5358 9.15334 11.9999 10.0147 11.9999 11.0001V13.6668C11.9999 14.6721 12.5599 15.5507 13.384 16.0041ZM14.6666 11.0001C15.4025 11.0001 15.9999 10.4027 15.9999 9.66678V8.3335C15.9999 5.39209 18.3919 3.00021 21.3332 3.00021H26.6665C29.6079 3.00021 31.9997 5.39225 31.9997 8.3335V9.66678C31.9997 10.4027 32.5957 11.0001 33.333 11.0001V13.6668C32.5957 13.6668 31.9997 14.2641 31.9997 15.0001C31.9997 17.3068 30.8185 19.7147 30.8065 19.7374C29.4185 22.5133 28.1944 24.3333 23.9997 24.3333C19.8038 24.3333 18.5797 22.5133 17.193 19.7386C17.1797 19.7146 15.9997 17.3066 15.9997 15.0001C15.9997 14.2641 15.4024 13.6668 14.6665 13.6668V11.0001H14.6666Z" fill="#5939FB"/>
<path d="M46.6667 61.6669C46.4026 61.6669 46.1453 61.7455 45.9267 61.891L42.6667 64.0643L39.4053 61.8908C39.1867 61.7455 38.9293 61.6667 38.6667 61.6667C30.9534 61.6667 29.3334 65.2921 29.3334 68.3335C29.3334 69.0694 29.9293 69.6668 30.6667 69.6668C31.4026 69.6668 32 69.0694 32 68.3335C32 67.2614 32 64.4508 38.2679 64.3361L41.9265 66.7761C42.3745 67.0747 42.9572 67.0747 43.4051 66.7761L47.0651 64.3361C53.3331 64.4508 53.3331 67.2614 53.3331 68.3335C53.3331 69.0694 53.929 69.6668 54.6664 69.6668C55.4023 69.6668 55.9997 69.0694 55.9997 68.3335C56 65.2922 54.38 61.6669 46.6667 61.6669Z" fill="#5939FB"/>
<path d="M20 13.6666H21.3333C22.0692 13.6666 22.6665 13.0692 22.6665 12.3333C22.6665 11.5973 22.0692 11 21.3333 11H20C19.2627 11 18.6667 11.5973 18.6667 12.3333C18.6667 13.0692 19.2627 13.6666 20 13.6666Z" fill="#5939FB"/>
<path d="M30.64 37.9294L31.7559 32.3614C38.488 32.5135 43.3333 34.1908 44.8186 36.9188C45.1692 37.5655 45.9759 37.8041 46.6266 37.4521C47.2733 37.1 47.5119 36.2907 47.1598 35.6441C45.0678 31.7988 39.2411 29.6841 30.7519 29.6841C30.0892 29.6721 29.4905 30.1041 29.3586 30.7547L28.0253 37.4041C27.8813 38.1268 28.348 38.8294 29.0706 38.9735C29.16 38.9921 29.2466 39.0002 29.3347 39.0002C29.9574 39 30.512 38.5627 30.64 37.9294Z" fill="#5939FB"/>
<path d="M24.0001 29.667C22.5295 29.667 21.3334 30.8629 21.3334 32.3337C21.3334 33.3164 21.8734 34.167 22.6667 34.6296V44.3337C22.6667 45.0696 23.2626 45.667 24 45.667C24.7359 45.667 25.3333 45.0696 25.3333 44.3337V34.6296C26.1253 34.167 26.6665 33.3164 26.6665 32.3337C26.6669 30.8629 25.4695 29.667 24.0001 29.667Z" fill="#5939FB"/>
<path d="M18.6373 30.7452C18.5041 30.0973 17.8759 29.6852 17.2427 29.6838C10.2386 29.6838 4.88125 31.1838 2.14937 33.9091C0.724062 35.3332 0 37.0466 0 38.9999V65.6666C0 66.4026 0.595937 66.9999 1.33328 66.9999C2.06922 66.9999 2.66656 66.4026 2.66656 65.6666V38.9999C2.66656 37.7626 3.11453 36.7146 4.03328 35.7959C6.11062 33.7226 10.5292 32.4891 16.2506 32.3612L22.6947 63.2718C22.8441 63.9918 23.5533 64.4544 24.272 64.3051C24.9934 64.1544 25.4561 63.4477 25.3041 62.7277L18.6373 30.7452Z" fill="#5939FB"/>
</svg>
