<svg width="80" height="80" viewBox="0 0 80 80" fill="none" xmlns="http://www.w3.org/2000/svg">
<g clip-path="url(#clip0)">
<path d="M19.6095 26.2765L42.6668 3.21921L65.724 26.2765C65.9734 26.5271 66.312 26.6671 66.6667 26.6671H70.6666C71.404 26.6671 71.9999 26.0697 71.9999 25.3338V4.00045C71.9999 3.26452 71.404 2.66718 70.6666 2.66718H64V1.33374C64 0.59781 63.404 0.000468755 62.6667 0.000468755H57.3334C56.5961 0.000468755 56.0001 0.59781 56.0001 1.33374V2.66702H52.0002C51.2628 2.66702 50.6669 3.26436 50.6669 4.0003C50.6669 4.73623 51.2628 5.33357 52.0002 5.33357H57.3334C58.0708 5.33357 58.6667 4.73623 58.6667 4.0003V2.66702H61.3334V4.0003C61.3334 4.73623 61.9293 5.33357 62.6667 5.33357H69.3334V24.0002H67.2187L43.6094 0.390936C43.0882 -0.130312 42.2453 -0.130312 41.7241 0.390936L18.1148 24.0002H16.0001V5.33373H33.3334C34.0693 5.33373 34.6666 4.73639 34.6666 4.00045C34.6666 3.26452 34.0693 2.66718 33.3334 2.66718H14.6669C13.9309 2.66718 13.3336 3.26452 13.3336 4.00045V25.3336C13.3336 26.0696 13.9309 26.6669 14.6669 26.6669H18.6668C19.0201 26.6671 19.3601 26.5271 19.6095 26.2765Z" fill="#5939FB"/>
<path d="M37.3332 16.0005V22.6672C37.3332 23.4031 37.9305 24.0005 38.6665 24.0005H46.6664C47.4038 24.0005 47.9997 23.4031 47.9997 22.6672V16.0005C47.9997 13.0591 45.6077 10.6672 42.6664 10.6672C39.7252 10.6672 37.3332 13.0593 37.3332 16.0005ZM45.3331 21.3338H39.9999V18.667H45.3331V21.3338ZM45.3331 16.0005H39.9999C39.9999 14.5299 41.1958 13.3338 42.6666 13.3338C44.1372 13.3338 45.3331 14.5299 45.3331 16.0005Z" fill="#5939FB"/>
<path d="M6.66691 48C0.076307 48 0.000213623 65.16 0.000213623 65.3332C0.000213623 68.5532 2.29489 71.2453 5.33347 71.8653V78.6666C5.33347 79.4026 5.93082 79.9999 6.66675 79.9999C7.40268 79.9999 8.00003 79.4026 8.00003 78.6666V71.8653C11.0386 71.2453 13.3333 68.5532 13.3333 65.3332C13.3334 65.16 13.2575 48 6.66691 48ZM6.66691 69.3332C4.4616 69.3332 2.66692 67.5385 2.66692 65.3332C2.66692 58.6906 4.45098 50.6666 6.66691 50.6666C8.88284 50.6666 10.6669 58.6906 10.6669 65.3332C10.6669 67.5387 8.87221 69.3332 6.66691 69.3332Z" fill="#5939FB"/>
<path d="M46.6665 48.0002C47.4039 48.0002 47.9998 47.4029 47.9998 46.6669V36.0003C47.9998 35.2643 47.4039 34.667 46.6665 34.667H38.6666C37.9306 34.667 37.3333 35.2643 37.3333 36.0003V46.6669C37.3333 47.4029 37.9306 48.0002 38.6666 48.0002H46.6665ZM39.9998 37.3335H45.3331V40.0002H39.9998V37.3335ZM39.9998 42.6669H45.3331V45.3336H39.9998V42.6669Z" fill="#5939FB"/>
<path d="M64.0001 54.667C64.0001 53.9311 63.4041 53.3337 62.6668 53.3337H17.3336C16.5976 53.3337 16.0003 53.9311 16.0003 54.667V78.6669C16.0003 79.4029 16.5976 80.0002 17.3336 80.0002C18.0695 80.0002 18.6668 79.4029 18.6668 78.6669V56.0003H62.6666C63.4041 56.0003 64.0001 55.4029 64.0001 54.667Z" fill="#5939FB"/>
<path d="M61.333 60.0005C61.333 59.2646 60.7371 58.6672 59.9998 58.6672H38.6666C37.9306 58.6672 37.3333 59.2646 37.3333 60.0005V70.6672C37.3333 71.4031 37.9306 72.0005 38.6666 72.0005H59.9998C60.7371 72.0005 61.333 71.4031 61.333 70.6672V60.0005ZM47.9998 69.3338H39.9998V61.3338H47.9998V69.3338ZM58.6665 69.3338H50.6665V61.3338H58.6665V69.3338Z" fill="#5939FB"/>
<path d="M76 72.0002C75.7694 72.0002 75.54 72.0202 75.3147 72.0602C74.3961 70.4028 72.6427 69.3335 70.6668 69.3335C70.2068 69.3335 69.7615 69.3961 69.3335 69.5067V30.667C69.3335 29.9311 68.7376 29.3337 68.0002 29.3337H17.3336C16.5976 29.3337 16.0003 29.9311 16.0003 30.667V49.3337C16.0003 50.0696 16.5976 50.667 17.3336 50.667C18.0695 50.667 18.6668 50.0696 18.6668 49.3337V32.0003H66.6666V71.1549C66.4226 71.4335 66.1999 71.7308 66.0187 72.0602C65.7934 72.0202 65.564 72.0002 65.3334 72.0002C63.1281 72.0002 61.3334 73.7949 61.3334 76.0002C61.3334 78.2055 63.1281 80.0001 65.3334 80.0001H76C78.2053 80.0001 80 78.2055 80 76.0002C80 73.7949 78.2053 72.0002 76 72.0002ZM76 77.3334H65.3334C64.5974 77.3334 64.0001 76.7348 64.0001 76.0002C64.0001 75.2655 64.5974 74.6669 65.3334 74.6669C65.5881 74.6669 65.832 74.7402 66.056 74.8842C66.4201 75.1202 66.8774 75.1616 67.2801 75.0002C67.6827 74.8361 67.9787 74.4869 68.0787 74.0642C68.3601 72.8495 69.4227 72.0002 70.6666 72.0002C71.9107 72.0002 72.9733 72.8495 73.2546 74.0642C73.3546 74.4869 73.6505 74.8363 74.0532 75.0002C74.4558 75.1616 74.9132 75.1202 75.2772 74.8842C76.1452 74.3242 77.3332 75.0109 77.3332 76.0002C77.3333 76.7348 76.736 77.3334 76 77.3334Z" fill="#5939FB"/>
<path d="M57.3335 77.3337H37.3335V76.0004C37.3335 75.2645 36.7362 74.6672 36.0003 74.6672H34.667V60.0005C34.667 59.2646 34.0696 58.6672 33.3337 58.6672H25.3337C24.5978 58.6672 24.0004 59.2646 24.0004 60.0005V74.6672H22.6672C21.9312 74.6672 21.3339 75.2645 21.3339 76.0004C21.3339 76.7364 21.9312 77.3337 22.6672 77.3337H34.6671V78.667C34.6671 79.4029 35.2645 80.0003 36.0004 80.0003H57.3336C58.071 80.0003 58.6669 79.4029 58.6669 78.667C58.6669 77.9311 58.0708 77.3337 57.3335 77.3337ZM32.0003 66.6672H30.667C29.9311 66.6672 29.3337 67.2645 29.3337 68.0005C29.3337 68.7364 29.9311 69.3338 30.667 69.3338H32.0003V74.667H26.667V61.3338H32.0003V66.6672Z" fill="#5939FB"/>
<path d="M59.9998 48.0002C60.7372 48.0002 61.3331 47.4029 61.3331 46.6669V36.0003C61.3331 35.2643 60.7372 34.667 59.9998 34.667H51.9998C51.2625 34.667 50.6666 35.2643 50.6666 36.0003V46.6669C50.6666 47.4029 51.2625 48.0002 51.9998 48.0002H59.9998ZM53.3331 37.3335H58.6664V40.0002H53.3331V37.3335ZM53.3331 42.6669H58.6664V45.3336H53.3331V42.6669Z" fill="#5939FB"/>
<path d="M33.3332 48.0002C34.0691 48.0002 34.6665 47.4029 34.6665 46.6669V36.0003C34.6665 35.2643 34.0691 34.667 33.3332 34.667H25.3332C24.5973 34.667 23.9999 35.2643 23.9999 36.0003V46.6669C23.9999 47.4029 24.5973 48.0002 25.3332 48.0002H33.3332ZM26.6666 37.3335H31.9999V40.0002H26.6666V37.3335ZM26.6666 42.6669H31.9999V45.3336H26.6666V42.6669Z" fill="#5939FB"/>
</g>
<defs>
<clipPath id="clip0">
<rect width="80" height="80" fill="white"/>
</clipPath>
</defs>
</svg>
