<svg width="80" height="80" viewBox="0 0 80 80" fill="none" xmlns="http://www.w3.org/2000/svg">
<g clip-path="url(#clip0)">
<path d="M6.66669 38.6638C5.93075 38.6638 5.3334 39.2612 5.3334 39.9971V41.3304C5.3334 42.0663 5.93075 42.6637 6.66669 42.6637C8.13731 42.6637 9.33341 43.8596 9.33341 45.3304C9.33341 46.0663 9.93075 46.6637 10.6667 46.6637C11.4026 46.6637 12 46.0663 12 45.3304C12 42.8504 10.2973 40.7598 7.99997 40.1651V39.9971C7.99997 39.2612 7.40263 38.6638 6.66669 38.6638Z" fill="#5939FB"/>
<path d="M6.66669 66.6635C16.224 66.6635 24 58.8876 24 49.3303C24 39.7729 16.224 31.9968 6.66669 31.9968C5.93075 31.9968 5.3334 32.5942 5.3334 33.3301C5.3334 34.066 5.93075 34.6634 6.66669 34.6634C14.7534 34.6634 21.3334 41.2434 21.3334 49.3301C21.3334 57.4168 14.7534 63.9968 6.66669 63.9968C5.93075 63.9968 5.3334 64.5942 5.3334 65.3301C5.3334 66.066 5.93059 66.6635 6.66669 66.6635Z" fill="#5939FB"/>
<path d="M73.3333 18.6641H20.792L62.9427 10.6362C62.9547 10.6321 64.472 10.3376 65.5041 11.1815C66.2761 11.8121 66.6667 12.9841 66.6667 14.6641C66.6667 15.4001 67.2641 15.9974 68 15.9974C68.7359 15.9974 69.3333 15.4001 69.3333 14.6641C69.3333 12.1268 68.6027 10.2521 67.1627 9.0921C65.1253 7.45351 62.492 8.00413 62.4173 8.02147L6.41734 18.688C5.74141 18.816 5.27469 19.4387 5.33875 20.1227C5.40406 20.8068 5.97875 21.3307 6.66672 21.3307H73.3334C75.5387 21.3307 77.3334 23.1254 77.3334 25.3307V73.3307C77.3334 75.536 75.5387 77.3307 73.3334 77.3307H6.66672C4.46141 77.3307 2.66672 75.536 2.66672 73.3307V19.9974C2.66672 17.5721 4.92141 15.8533 7.04938 15.2748L47.1653 3.23476C47.972 2.90944 50.6012 2.20007 52.052 3.18148C52.9027 3.75616 53.3334 4.92819 53.3334 6.66413C53.3334 7.40007 53.9308 7.99741 54.6667 7.99741C55.4027 7.99741 56 7.40007 56 6.66413C56 3.98819 55.1733 2.0721 53.5441 0.9721C50.6761 -0.965243 46.6214 0.578819 46.2841 0.720069L6.31734 12.7107C3.17203 13.5654 0 16.1507 0 19.9974V73.3307C0 77.0066 2.99062 79.9974 6.66672 79.9974H73.3334C77.0094 79.9974 80.0002 77.0068 80.0002 73.3307V25.3307C80 21.6548 77.0094 18.6641 73.3333 18.6641Z" fill="#5939FB"/>
<path d="M6.66669 55.9971C5.93075 55.9971 5.3334 56.5944 5.3334 57.3303V58.6636C5.3334 59.3996 5.93075 59.9969 6.66669 59.9969C7.40263 59.9969 7.99997 59.3996 7.99997 58.6636V58.4957C10.2973 57.901 12 55.8103 12 53.3303C12 50.3889 9.60794 47.9971 6.66669 47.9971C5.93075 47.9971 5.3334 48.5944 5.3334 49.3304C5.3334 50.0663 5.93075 50.6636 6.66669 50.6636C8.13731 50.6636 9.33341 51.8596 9.33341 53.3303C9.33325 54.8011 8.13731 55.9971 6.66669 55.9971Z" fill="#5939FB"/>
<path d="M36.0002 55.997C36.7361 55.997 37.3334 55.3996 37.3334 54.6637V43.997C37.3334 43.4583 37.0081 42.9717 36.5108 42.765C36.0094 42.5583 35.4388 42.6717 35.0575 43.0543L31.0575 47.0543C30.5361 47.5757 30.5361 48.4184 31.0575 48.9397C31.5787 49.4611 32.4216 49.4611 32.9428 48.9397L34.6669 47.2156V54.6636C34.6669 55.3996 35.2642 55.997 36.0002 55.997Z" fill="#5939FB"/>
<path d="M58.6666 51.9969V46.6636C58.6666 44.4583 56.8719 42.6636 54.6666 42.6636C52.4613 42.6636 50.6666 44.4583 50.6666 46.6636V51.9969C50.6666 54.2022 52.4613 55.9969 54.6666 55.9969C56.8719 55.9969 58.6666 54.2022 58.6666 51.9969ZM53.3331 51.9969V46.6636C53.3331 45.9289 53.9317 45.3303 54.6664 45.3303C55.4011 45.3303 55.9997 45.9289 55.9997 46.6636V51.9969C55.9997 52.7315 55.4011 53.3301 54.6664 53.3301C53.9317 53.3301 53.3331 52.7315 53.3331 51.9969Z" fill="#5939FB"/>
<path d="M6.66669 74.6634H65.3334C66.0693 74.6634 66.6667 74.066 66.6667 73.3301C66.6667 69.6542 69.6573 66.6634 73.3334 66.6634C74.0693 66.6634 74.6667 66.066 74.6667 65.3301V33.3301C74.6667 32.5942 74.0693 31.9968 73.3334 31.9968C69.6575 31.9968 66.6667 29.0062 66.6667 25.3301C66.6667 24.5942 66.0693 23.9968 65.3334 23.9968H6.66669C5.93075 23.9968 5.3334 24.5942 5.3334 25.3301C5.3334 26.066 5.93075 26.6634 6.66669 26.6634H64.0947C64.6814 30.7448 67.9187 33.982 72 34.5687V64.0914C67.9186 64.6781 64.6814 67.9154 64.0947 71.9967H6.66669C5.93075 71.9967 5.3334 72.594 5.3334 73.3299C5.3334 74.0659 5.93059 74.6634 6.66669 74.6634Z" fill="#5939FB"/>
<path d="M48 51.9969V46.6636C48 44.4583 46.2053 42.6636 44 42.6636C41.7947 42.6636 40 44.4583 40 46.6636V51.9969C40 54.2022 41.7947 55.9969 44 55.9969C46.2053 55.9969 48 54.2022 48 51.9969ZM42.6667 51.9969V46.6636C42.6667 45.9289 43.2653 45.3303 44 45.3303C44.7347 45.3303 45.3333 45.9289 45.3333 46.6636V51.9969C45.3333 52.7315 44.7347 53.3301 44 53.3301C43.2653 53.3301 42.6667 52.7315 42.6667 51.9969Z" fill="#5939FB"/>
</g>
<defs>
<clipPath id="clip0">
<rect width="80" height="80" fill="white"/>
</clipPath>
</defs>
</svg>
