<svg width="32" height="32" viewBox="0 0 32 32" fill="none" xmlns="http://www.w3.org/2000/svg">
<g clip-path="url(#clip0)">
<path d="M31.9374 17.1295L27.0153 6.28851C26.9033 6.03851 26.655 5.87729 26.3807 5.87729H18.9907C18.6411 4.511 17.4101 3.55566 16 3.55566C14.5899 3.55566 13.3589 4.511 13.0093 5.87729H5.61928C5.3494 5.87184 5.10158 6.02435 4.98475 6.26754L0.0626405 17.1017C0.0250588 17.1997 0.0040893 17.3035 4.33338e-06 17.4083C-0.0038083 20.5118 2.50872 23.0306 5.6122 23.0344C8.71569 23.0382 11.2345 20.5257 11.2383 17.4222C11.2391 17.3236 11.2176 17.2259 11.1757 17.1365L6.69989 7.27162H12.9812C13.226 8.44564 14.1332 9.36939 15.3028 9.63491V24.0734H12.1934C10.9894 24.0851 10.0163 25.0584 10.0044 26.2624V27.7264C10.0044 28.1099 10.3391 28.3958 10.7293 28.3958H21.201C21.5844 28.3958 21.9259 28.1099 21.9259 27.7264V26.2624C21.9139 25.0584 20.9409 24.0851 19.7369 24.0734H16.6972V9.63491C17.8644 9.36476 18.7693 8.44319 19.0188 7.27162H25.3001L20.8243 17.1365C20.783 17.2261 20.7617 17.3236 20.7617 17.4222C20.7617 20.5257 23.2775 23.0415 26.3807 23.0415C29.4842 23.0415 32 20.5257 32 17.4222C32.0008 17.3212 31.9793 17.2212 31.9374 17.1295ZM5.61928 8.28932L9.46052 16.7531H1.77778L5.61928 8.28932ZM5.61928 21.6749C3.52778 21.6749 1.78486 20.0995 1.45017 18.1474H9.78132C9.45371 20.0995 7.71079 21.6749 5.61928 21.6749ZM20.5316 26.2624V27.0015H11.3987V26.2624C11.4082 25.8274 11.7587 25.4772 12.1934 25.4677H19.7369C20.1718 25.4772 20.5221 25.8274 20.5316 26.2624ZM16 8.32418C15.0684 8.32418 14.3129 7.56901 14.3129 6.63709C14.3129 5.70545 15.0684 4.95 16 4.95C16.9319 4.95 17.6871 5.70545 17.6871 6.63709C17.6863 7.56846 16.9314 8.32336 16 8.32418ZM30.2222 16.7531H22.5395L26.3807 8.28932L30.2222 16.7531ZM26.3807 21.6749C24.2892 21.6749 22.5463 20.0995 22.2119 18.1474H30.543C30.2151 20.0995 28.4722 21.6749 26.3807 21.6749Z" fill="#5939FB"/>
</g>
<defs>
<clipPath id="clip0">
<rect width="32" height="32" fill="white"/>
</clipPath>
</defs>
</svg>
