<svg width="80" height="80" viewBox="0 0 80 80" fill="none" xmlns="http://www.w3.org/2000/svg">
<path d="M18.8071 39.8821C19.7686 42.4127 22.9445 50.5726 25.2498 54.0725L25.4579 54.3911C27.1493 56.987 29.98 61.3324 39.5183 61.3324C49.0565 61.3324 51.8872 56.9872 53.5786 54.3911L53.7867 54.0725C56.0918 50.5726 59.2678 42.4127 60.2295 39.8821C61.9499 39.4488 63.2288 37.8728 63.2288 35.9995V30.6663C63.2288 28.9277 62.1275 27.4449 60.5942 26.8943V19.9997C60.5942 14.7357 57.8556 5.01196 47.726 4.07323C47.7063 3.44386 47.5008 2.9373 47.2716 2.56262C45.9767 0.445306 42.3411 0 39.5183 0C16.0791 0 15.8077 22.4397 15.8077 22.6664C15.8077 23.4023 16.3965 23.9984 17.1223 23.9984H17.1249C17.8508 23.9984 18.4395 23.4037 18.4421 22.6691C18.4448 21.8517 18.7411 2.66668 39.5181 2.66668C43.2432 2.66668 44.7358 3.48261 45.0308 3.96526C45.0717 4.03323 45.1836 4.21588 44.9254 4.73728C44.7211 5.15055 44.7435 5.64133 44.9832 6.03461C45.2244 6.42663 45.6472 6.66663 46.1043 6.66663C57.7831 6.66663 57.9581 19.4571 57.9595 19.9997V27.9996C57.9595 28.7355 58.5483 29.3329 59.2767 29.3329C60.0038 29.3329 60.5939 29.9315 60.5939 30.6661V35.9995C60.5939 36.7342 60.0038 37.3328 59.2767 37.3328C58.7275 37.3328 58.2361 37.6781 58.0424 38.1981C58.0043 38.3034 54.1144 48.7673 51.5944 52.5926L51.3785 52.9232C49.8004 55.3472 47.6374 58.6658 39.5179 58.6658C31.3985 58.6658 29.2355 55.3472 27.6574 52.9232L27.4415 52.5926C24.9216 48.7673 21.0318 38.3034 20.9935 38.1981C20.7999 37.6781 20.3086 37.3328 19.7592 37.3328C19.0321 37.3328 18.442 36.7342 18.442 35.9995V30.6663C18.442 30.3049 18.5843 29.9769 18.816 29.7369C19.2928 30.8236 20.2703 31.801 21.9115 31.9663L26.4179 35.3876C26.7683 37.9849 28.9523 39.9996 31.6144 39.9996H34.249C37.1549 39.9996 39.5179 37.6076 39.5179 34.6664C39.5179 37.6078 41.8811 39.9996 44.7869 39.9996H47.4214C50.0822 39.9996 52.2676 37.9849 52.618 35.3876L57.4325 31.733C58.0148 31.2916 58.1333 30.4557 57.696 29.8663C57.2599 29.2769 56.4341 29.1557 55.8518 29.5996L52.4942 32.1489C51.9924 30.5236 50.5091 29.333 48.7386 29.333H43.4697C41.291 29.333 39.5179 31.1277 39.5179 33.333C39.5179 31.1277 37.7449 29.333 35.5662 29.333H30.2972C28.5268 29.333 27.0437 30.5236 26.5418 32.1489L24.0285 30.241C25.0652 27.7051 26.0043 23.9544 26.2705 21.3211C30.4224 21.2464 42.4345 20.7332 47.7785 17.3571C48.9904 22.093 52.8815 26.0784 53.0765 26.2757C53.5914 26.797 54.4241 26.797 54.939 26.2757C55.454 25.7543 55.454 24.9117 54.939 24.3904C54.8903 24.3411 50.056 19.3932 50.056 14.6665C50.056 14.0679 49.6608 13.5412 49.0905 13.3812C48.5253 13.2225 47.9128 13.4665 47.6099 13.9798C45.6919 17.213 33.2506 18.6665 25.0283 18.6665C24.2998 18.6665 23.7111 19.2638 23.7111 19.9997C23.7111 22.165 22.6994 26.4864 21.6259 29.1463C21.2057 28.8904 21.0872 28.413 21.0767 27.9996C21.0767 27.2637 20.4879 26.6664 19.7595 26.6664C17.5808 26.6664 15.8077 28.461 15.8077 30.6663V35.9995C15.8077 37.8728 17.0868 39.4488 18.8071 39.8821ZM42.1527 33.3328C42.1527 32.5981 42.7428 31.9996 43.4699 31.9996H48.7388C49.4659 31.9996 50.056 32.5981 50.056 33.3328V34.6661C50.056 36.1367 48.8745 37.3328 47.4214 37.3328H44.7869C43.334 37.3328 42.1523 36.1368 42.1523 34.6661V33.3328H42.1527ZM28.9802 33.3328C28.9802 32.5981 29.5703 31.9996 30.2974 31.9996H35.5663C36.2934 31.9996 36.8835 32.5981 36.8835 33.3328V34.6661C36.8835 36.1367 35.702 37.3328 34.249 37.3328H31.6144C30.1615 37.3328 28.9799 36.1368 28.9799 34.6661V33.3328H28.9802Z" fill="#5939FB"/>
<path d="M46.1034 48.0033C46.1048 47.2686 45.5173 46.6701 44.7915 46.666C44.7665 46.666 42.4111 46.6393 40.1072 45.474C39.7371 45.286 39.2998 45.286 38.9296 45.474C36.6257 46.6393 34.2705 46.666 34.2494 46.666C33.5209 46.666 32.9322 47.2633 32.9322 47.9993C32.9322 48.7352 33.5209 49.3325 34.2494 49.3325C34.3613 49.3325 36.8509 49.3178 39.5183 48.1379C42.1858 49.3178 44.6754 49.3325 44.7873 49.3325C45.5133 49.3325 46.1008 48.7378 46.1034 48.0033Z" fill="#5939FB"/>
<path d="M38.2009 50.666C37.4725 50.666 36.8838 51.2633 36.8838 51.9993C36.8838 52.7352 37.4725 53.3325 38.2009 53.3325H40.8355C41.5639 53.3325 42.1527 52.7352 42.1527 51.9993C42.1527 51.2633 41.5639 50.666 40.8355 50.666H38.2009Z" fill="#5939FB"/>
<path d="M78.9964 78.3417L77.6502 72.9112C75.6888 66.9527 66.3639 64.054 49.1436 64.054C49.0079 64.054 48.8722 64.054 48.7353 64.0554C48.1096 64.0568 47.5707 64.5033 47.4483 65.126L44.8138 78.4031C44.6702 79.1258 45.1325 79.8284 45.8452 79.9737C46.5565 80.1137 47.2521 79.6497 47.3957 78.9284L49.8181 66.7233C64.9033 66.7939 73.6577 69.2165 75.1239 73.6565L76.4411 78.9897C76.5913 79.595 77.1274 80.0003 77.7175 79.999C77.8229 79.999 77.9308 79.987 78.0377 79.959C78.7434 79.7804 79.1729 79.0578 78.9964 78.3417Z" fill="#5939FB"/>
<path d="M31.5884 65.0708C31.4658 64.4467 30.9259 63.9988 30.2974 63.9988C12.3315 63.9988 3.41503 66.7481 1.35749 73.008L0.040295 78.3412C-0.137534 79.0572 0.293145 79.7798 0.999213 79.9585C1.10588 79.9865 1.21393 79.9985 1.31937 79.9985C1.90951 79.9985 2.44562 79.5945 2.59581 78.9892L3.88415 73.7533C5.42008 69.0907 13.7121 66.7708 29.2189 66.6694L31.6414 78.9265C31.7823 79.6479 32.4698 80.1185 33.1904 79.9732C33.9031 79.8279 34.3667 79.1253 34.2231 78.4039L31.5884 65.0708Z" fill="#5939FB"/>
<path d="M39.5183 63.9988C37.3396 63.9988 35.5665 65.7934 35.5665 67.9987C35.5665 69.7346 36.6716 71.2001 38.2011 71.752V78.6651C38.2011 79.4011 38.7898 79.9984 39.5183 79.9984C40.2467 79.9984 40.8355 79.4011 40.8355 78.6651V71.7534C42.3648 71.2001 43.47 69.7348 43.47 67.9987C43.47 65.7934 41.697 63.9988 39.5183 63.9988ZM39.5183 69.332C38.7912 69.332 38.2011 68.7334 38.2011 67.9987C38.2011 67.264 38.7912 66.6655 39.5183 66.6655C40.2453 66.6655 40.8355 67.264 40.8355 67.9987C40.8355 68.7334 40.2453 69.332 39.5183 69.332Z" fill="#5939FB"/>
</svg>
